<svg version="1.1" id="Layer_1" xmlns="http://www.w3.org/2000/svg" xmlns:xlink="http://www.w3.org/1999/xlink" x="0px" y="0px"
	 width="100%" viewBox="0 0 292 295" enable-background="new 0 0 292 295" xml:space="preserve">
<path fill="#00BC74" opacity="1.000000" stroke="none" 
	d="
M160.000000,296.000000 
	C106.666664,296.000000 53.833332,296.000000 1.000000,296.000000 
	C1.000000,197.666672 1.000000,99.333336 1.000000,1.000000 
	C98.333336,1.000000 195.666672,1.000000 293.000000,1.000000 
	C293.000000,99.333336 293.000000,197.666672 293.000000,296.000000 
	C248.833328,296.000000 204.666672,296.000000 160.000000,296.000000 
M214.285156,60.490818 
	C212.810715,60.327339 211.336365,60.021713 209.861832,60.020969 
	C160.662918,59.996128 111.463974,59.989956 62.265091,60.042999 
	C60.509392,60.044895 58.754375,60.674423 56.706223,61.659306 
	C52.427654,71.999886 48.149086,82.340462 43.578812,93.386047 
	C63.577625,93.386047 82.646164,93.386047 102.257790,93.386047 
	C101.367302,95.760254 100.757690,97.608055 99.993614,99.389603 
	C87.167946,129.294724 74.280373,159.173386 61.501259,189.098358 
	C55.576008,202.973572 49.853550,216.935394 44.695599,231.361069 
	C46.489311,231.574005 48.282902,231.971863 50.076744,231.972992 
	C102.466995,232.006226 154.857300,232.010635 207.247513,231.957199 
	C209.171875,231.955231 211.095581,231.325363 213.592392,230.557480 
	C227.735306,225.953369 239.509552,218.361633 245.638397,204.151260 
	C253.621933,185.640503 252.575089,171.595337 239.174820,158.338364 
	C234.997116,154.205322 229.993668,150.906906 225.445786,147.288116 
	C230.514740,143.566360 235.966034,140.026627 240.844177,135.821945 
	C244.178772,132.947769 248.016159,129.601730 249.387161,125.682510 
	C256.282318,105.971344 251.682968,83.065277 234.295410,71.093552 
	C228.345413,66.996864 221.456009,64.264549 214.285156,60.490818 
z"/>
<path fill="#FEFFFE" opacity="1.000000" stroke="none" 
	d="
M44.039162,230.857956 
	C49.853550,216.935394 55.576008,202.973572 61.501259,189.098358 
	C74.280373,159.173386 87.167946,129.294724 99.993614,99.389603 
	C100.757690,97.608055 101.367302,95.760254 102.257790,93.386047 
	C82.646164,93.386047 63.577625,93.386047 43.578812,93.386047 
	C48.149086,82.340462 52.427654,71.999886 57.321457,61.329346 
	C110.289726,60.969219 162.642761,60.939049 214.995804,60.908882 
	C221.456009,64.264549 228.345413,66.996864 234.295410,71.093552 
	C251.682968,83.065277 256.282318,105.971344 249.387161,125.682510 
	C248.016159,129.601730 244.178772,132.947769 240.844177,135.821945 
	C235.966034,140.026627 230.514740,143.566360 225.445786,147.288116 
	C229.993668,150.906906 234.997116,154.205322 239.174820,158.338364 
	C252.575089,171.595337 253.621933,185.640503 245.638397,204.151260 
	C239.509552,218.361633 227.735306,225.953369 212.837708,230.719849 
	C156.068405,230.874130 100.053787,230.866043 44.039162,230.857956 
M155.786575,203.275360 
	C178.210144,185.021454 200.633713,166.767563 223.731628,147.964706 
	C221.606750,147.770798 220.344742,147.571274 219.080185,147.553543 
	C208.588989,147.406464 198.096878,147.322922 187.605988,147.159592 
	C179.593826,147.034851 177.262039,143.776855 179.936996,136.379074 
	C183.775574,125.763214 187.727020,115.188210 191.582428,104.578369 
	C192.550079,101.915451 193.335327,99.186264 194.204407,96.487534 
	C193.919205,96.346901 193.633987,96.206276 193.348785,96.065651 
	C165.439789,119.984207 137.530792,143.902756 108.580338,168.713867 
	C120.758881,168.713867 131.383041,168.672424 142.006699,168.726456 
	C151.160156,168.773010 152.965103,171.572311 149.624435,180.164948 
	C144.993484,192.076279 140.407074,204.004990 135.834213,215.938766 
	C135.482956,216.855453 135.389511,217.870911 134.851303,220.317581 
	C142.428909,214.162582 148.839325,208.955643 155.786575,203.275360 
z"/>
<path fill="#00B766" opacity="1.000000" stroke="none" 
	d="
M44.367378,231.109512 
	C100.053787,230.866043 156.068405,230.874130 212.551315,230.935150 
	C211.095581,231.325363 209.171875,231.955231 207.247513,231.957199 
	C154.857300,232.010635 102.466995,232.006226 50.076744,231.972992 
	C48.282902,231.971863 46.489311,231.574005 44.367378,231.109512 
z"/>
<path fill="#00B65F" opacity="1.000000" stroke="none" 
	d="
M214.640472,60.699852 
	C162.642761,60.939049 110.289726,60.969219 57.467865,61.005409 
	C58.754375,60.674423 60.509392,60.044895 62.265091,60.042999 
	C111.463974,59.989956 160.662918,59.996128 209.861832,60.020969 
	C211.336365,60.021713 212.810715,60.327339 214.640472,60.699852 
z"/>
<path fill="#04BD75" opacity="1.000000" stroke="none" 
	d="
M155.518158,203.512039 
	C148.839325,208.955643 142.428909,214.162582 134.851303,220.317581 
	C135.389511,217.870911 135.482956,216.855453 135.834213,215.938766 
	C140.407074,204.004990 144.993484,192.076279 149.624435,180.164948 
	C152.965103,171.572311 151.160156,168.773010 142.006699,168.726456 
	C131.383041,168.672424 120.758881,168.713867 108.580338,168.713867 
	C137.530792,143.902756 165.439789,119.984207 193.348785,96.065651 
	C193.633987,96.206276 193.919205,96.346901 194.204407,96.487534 
	C193.335327,99.186264 192.550079,101.915451 191.582428,104.578369 
	C187.727020,115.188210 183.775574,125.763214 179.936996,136.379074 
	C177.262039,143.776855 179.593826,147.034851 187.605988,147.159592 
	C198.096878,147.322922 208.588989,147.406464 219.080185,147.553543 
	C220.344742,147.571274 221.606750,147.770798 223.731628,147.964706 
	C200.633713,166.767563 178.210144,185.021454 155.518158,203.512039 
z"/>
</svg>