<svg version="1.1" id="Layer_1" xmlns="http://www.w3.org/2000/svg" xmlns:xlink="http://www.w3.org/1999/xlink" x="0px" y="0px"
	 width="100%" viewBox="0 0 249 248" enable-background="new 0 0 249 248" xml:space="preserve">
<path fill="#010102" opacity="1.000000" stroke="none" 
	d="
M139.000000,249.000000 
	C92.666672,249.000000 46.833340,249.000000 1.000006,249.000000 
	C1.000004,166.333344 1.000004,83.666679 1.000002,1.000017 
	C83.999992,1.000011 166.999985,1.000011 249.999969,1.000006 
	C249.999985,83.666649 249.999985,166.333298 250.000000,248.999969 
	C213.166672,249.000000 176.333328,249.000000 139.000000,249.000000 
M135.620132,219.144424 
	C140.658249,218.228546 145.791229,217.664230 150.717682,216.334625 
	C169.861572,211.167877 186.488617,201.521896 198.609024,185.734039 
	C204.987122,177.426025 209.465027,167.647293 214.613678,158.428070 
	C215.069717,157.611435 214.523758,155.291962 213.788177,154.900162 
	C207.020401,151.295227 200.108032,147.961670 192.728531,144.296158 
	C186.278732,164.263031 174.038605,178.949524 155.551819,187.638596 
	C136.672897,196.512009 117.227806,196.725601 98.067291,188.215775 
	C65.343567,173.682037 51.193394,137.281448 59.399685,109.651886 
	C60.024559,109.858231 60.683044,109.988983 61.261505,110.279221 
	C82.346809,120.858475 103.464149,131.375427 124.463326,142.123215 
	C127.822464,143.842484 130.405090,143.676285 133.684952,142.021118 
	C160.176300,128.652542 186.757416,115.461876 213.304291,102.203186 
	C214.583069,101.564507 215.797638,100.797211 217.633804,99.753456 
	C214.605270,92.954750 212.149902,86.217255 208.747314,79.997986 
	C181.275879,29.785482 114.234688,15.728832 69.196091,51.216770 
	C39.783062,74.392616 28.216135,105.442032 34.098785,142.270035 
	C37.812813,165.521500 49.613884,184.642761 68.317070,199.292389 
	C87.882790,214.617630 110.066460,221.073547 135.620132,219.144424 
z"/>
<path fill="#F9FCFC" opacity="1.000000" stroke="none" 
	d="
M135.194351,219.155518 
	C110.066460,221.073547 87.882790,214.617630 68.317070,199.292389 
	C49.613884,184.642761 37.812813,165.521500 34.098785,142.270035 
	C28.216135,105.442032 39.783062,74.392616 69.196091,51.216770 
	C114.234688,15.728832 181.275879,29.785482 208.747314,79.997986 
	C212.149902,86.217255 214.605270,92.954750 217.633804,99.753456 
	C215.797638,100.797211 214.583069,101.564507 213.304291,102.203186 
	C186.757416,115.461876 160.176300,128.652542 133.684952,142.021118 
	C130.405090,143.676285 127.822464,143.842484 124.463326,142.123215 
	C103.464149,131.375427 82.346809,120.858475 61.261505,110.279221 
	C60.683044,109.988983 60.024559,109.858231 59.399685,109.651886 
	C51.193394,137.281448 65.343567,173.682037 98.067291,188.215775 
	C117.227806,196.725601 136.672897,196.512009 155.551819,187.638596 
	C174.038605,178.949524 186.278732,164.263031 192.728531,144.296158 
	C200.108032,147.961670 207.020401,151.295227 213.788177,154.900162 
	C214.523758,155.291962 215.069717,157.611435 214.613678,158.428070 
	C209.465027,167.647293 204.987122,177.426025 198.609024,185.734039 
	C186.488617,201.521896 169.861572,211.167877 150.717682,216.334625 
	C145.791229,217.664230 140.658249,218.228546 135.194351,219.155518 
M77.160431,76.683098 
	C75.242302,78.966881 73.324181,81.250656 71.231483,83.742279 
	C89.836754,93.016808 108.128288,102.216972 126.542358,111.164986 
	C128.085754,111.914970 130.725693,111.531525 132.394867,110.722656 
	C146.328766,103.970413 160.153809,96.993538 174.013382,90.087830 
	C176.900238,88.649414 179.794128,87.225082 183.208969,85.534790 
	C181.772186,84.479233 180.790451,84.088760 180.323837,83.365807 
	C172.632645,71.449577 161.192169,64.266563 148.250351,60.026375 
	C121.733383,51.338509 98.132545,57.416344 77.160431,76.683098 
z"/>
<path fill="#010304" opacity="1.000000" stroke="none" 
	d="
M77.411499,76.430450 
	C98.132545,57.416344 121.733383,51.338509 148.250351,60.026375 
	C161.192169,64.266563 172.632645,71.449577 180.323837,83.365807 
	C180.790451,84.088760 181.772186,84.479233 183.208969,85.534790 
	C179.794128,87.225082 176.900238,88.649414 174.013382,90.087830 
	C160.153809,96.993538 146.328766,103.970413 132.394867,110.722656 
	C130.725693,111.531525 128.085754,111.914970 126.542358,111.164986 
	C108.128288,102.216972 89.836754,93.016808 71.231483,83.742279 
	C73.324181,81.250656 75.242302,78.966881 77.411499,76.430450 
z"/>
</svg>